<svg width="1200" height="720" viewBox="0 0 1200 720" fill="none" xmlns="http://www.w3.org/2000/svg">
  <rect width="1200" height="720" rx="40" fill="#0B1020"/>
  <circle cx="160" cy="120" r="180" fill="#2F7CF6" fill-opacity="0.18"/>
  <circle cx="1020" cy="620" r="220" fill="#A855F7" fill-opacity="0.16"/>
  <rect x="72" y="72" width="1056" height="576" rx="28" fill="#11182D" stroke="rgba(255,255,255,0.10)"/>
  <rect x="96" y="96" width="244" height="40" rx="20" fill="#1E2A44"/>
  <text x="120" y="123" fill="#8BE9FD" font-family="Inter, Arial, sans-serif" font-size="20" font-weight="700">SpicyToday</text>
  <text x="96" y="208" fill="#FFFFFF" font-family="Inter, Arial, sans-serif" font-size="52" font-weight="800">AI-Powered Social Media Platform</text>
  <text x="96" y="260" fill="#B7C0E3" font-family="Inter, Arial, sans-serif" font-size="24" font-weight="500">Real-time chat, AI content modules, JWT auth, MongoDB, Flask-SocketIO</text>
  <rect x="96" y="324" width="176" height="56" rx="16" fill="#2D6BFF"/>
  <text x="136" y="360" fill="#FFFFFF" font-family="Inter, Arial, sans-serif" font-size="22" font-weight="700">Live Preview</text>
  <rect x="288" y="324" width="232" height="56" rx="16" fill="#1E2A44" stroke="rgba(255,255,255,0.10)"/>
  <text x="326" y="360" fill="#C9D2FF" font-family="Inter, Arial, sans-serif" font-size="22" font-weight="600">Production Backend</text>
  <g transform="translate(96 424)">
    <rect width="248" height="130" rx="24" fill="#16213A"/>
    <text x="24" y="46" fill="#8BE9FD" font-family="Inter, Arial, sans-serif" font-size="22" font-weight="700">30+ REST APIs</text>
    <text x="24" y="84" fill="#D7DEF8" font-family="Inter, Arial, sans-serif" font-size="18" font-weight="500">Auth, posts, stories, reels</text>
  </g>
  <g transform="translate(372 424)">
    <rect width="248" height="130" rx="24" fill="#16213A"/>
    <text x="24" y="46" fill="#FBCFE8" font-family="Inter, Arial, sans-serif" font-size="22" font-weight="700">Socket.IO Realtime</text>
    <text x="24" y="84" fill="#D7DEF8" font-family="Inter, Arial, sans-serif" font-size="18" font-weight="500">Chat, notifications, follows</text>
  </g>
  <g transform="translate(648 424)">
    <rect width="248" height="130" rx="24" fill="#16213A"/>
    <text x="24" y="46" fill="#A7F3D0" font-family="Inter, Arial, sans-serif" font-size="22" font-weight="700">AI Modules</text>
    <text x="24" y="84" fill="#D7DEF8" font-family="Inter, Arial, sans-serif" font-size="18" font-weight="500">Content & feature intelligence</text>
  </g>
  <g transform="translate(924 424)">
    <rect width="180" height="130" rx="24" fill="#16213A"/>
    <text x="24" y="46" fill="#FDE68A" font-family="Inter, Arial, sans-serif" font-size="22" font-weight="700">Deployable</text>
    <text x="24" y="84" fill="#D7DEF8" font-family="Inter, Arial, sans-serif" font-size="18" font-weight="500">Docs + tests</text>
  </g>
</svg>
